<svg viewBox="0 0 2198 630" xmlns="http://www.w3.org/2000/svg" xmlns:xlink="http://www.w3.org/1999/xlink"><defs><path d="M0.952755906,13.8818898 C298.678953,410.439362 754.645543,410.447796 1295.95276,410.88189 C1845.91671,413.606994 2382.44714,410.439362 2709.95276,13.8818898 C2724.25652,-3.57516854 -11.838905,-3.28478749 0.952755906,13.8818898 Z" id="a"/></defs><g fill="none" fill-rule="evenodd"><circle fill="#FDE279" cx="1270.5" cy="77.5" r="56.5"/><path d="M1354,131 L1342,119 C1349.94006,106.920093 1354.93804,92.9309542 1355,77 C1354.93804,36.9743988 1320.95181,4 1278,4 C1235.98623,4 1202,36.9743988 1202,77 C1202,117.911559 1235.98623,150.885958 1278,151 C1289.96436,150.885958 1300.46011,148.387898 1310,145 L1325,159 C1332.44715,166.873545 1344.94209,166.873545 1352,159 L1354,158 C1361.9352,150.885958 1361.9352,138.895268 1354,131 L1354,131 Z M1279,123 C1253.5,123 1233,102.5 1233,78 C1233,52.5 1253.5,32 1279,32 C1303.5,32 1324,52.5 1324,78 C1324,102.5 1303.5,123 1279,123 L1279,123 Z" fill="#E2312E"/><path d="M1286,162 L1276,162 C1239.79021,162 1210,191.735099 1210,228 L1210,545 C1210,581.264901 1239.79021,611 1276,611 L1286,611 C1322.20979,611 1352,581.264901 1352,545 L1352,228 C1351.5035,191.735099 1321.71329,162 1286,162 L1286,162 Z" fill="#020202"/><path d="M1136,166 L957,166 C924.774624,166 898,192.26392 898,225 L898,230 L898,234 L898,238 L898,545 C898,581.267261 927.749583,611 964,611 L974,611 C1010.05676,611 1039.80634,581.267261 1040,545 L1040,452 L1124,452 C1152.85476,451.929844 1177.15025,427.648107 1177,398 L1177,389 C1177.15025,359.262806 1152.85476,334.981069 1124,335 L1040,335 L1040,288 L1136,288 C1168.22538,288.399777 1195,262.135857 1195,229 L1195,224 C1194.50417,192.26392 1167.72955,166 1136,166 L1136,166 Z" fill="#020202"/><path d="M807,166 L628,166 C595.819398,166 569,192.26392 569,225 L569,230 L569,234 L569,238 L569,545 L569,546 L569,547 L569,552 C569,584.240535 595.322742,611 628,611 L635,611 L645,611 L807,611 C839.180602,611 866,584.73608 866,552 L866,547 C866,514.864143 839.677258,488.104677 807,488 L711,488 L711,452 L794,452 C823.784281,451.929844 848.120401,427.648107 848,398 L848,389 C848.120401,359.262806 823.784281,334.981069 794,335 L711,335 L711,288 L807,288 C839.180602,288.399777 866,262.135857 866,229 L866,224 C866,192.26392 839.677258,166 807,166 L807,166 Z" fill="#020202"/><path d="M1618,168 L1469,168 L1467,168 L1460,168 C1423.75069,168 1394,197.753376 1394,234 L1394,546 C1394,582.067818 1423.75069,611.821194 1460,612 L1470,612 C1506.06094,611.821194 1535.81163,582.067818 1536,546 L1536,463 L1625,585 C1646.38504,614.300642 1687.54017,620.747207 1717,599 L1725,593 C1753.98338,572.150026 1760.42936,530.991189 1739,502 L1687,430 C1725.22438,410.985905 1752,371.810626 1752,326 L1752,302 C1752,279.57516 1745.55402,258.251908 1734,240 C1711.83657,197.753376 1668.20222,168 1618,168 L1618,168 Z M1614,317 C1614,330.5 1602.57325,342 1589,342 L1536,342 L1536,289 L1589,289 C1602.57325,289 1614,300.5 1614,314 L1614,317 L1614,317 Z" fill="#020202"/><path d="M2192,524 L2080,235 C2076.54706,223.985921 2069.59634,212.087887 2060,202 C2044.27589,180.855548 2011.50824,164 1977,164 C1938.02927,164 1902.28275,183.334305 1889,207 C1882.42357,216.053899 1876.96229,225.968927 1874,236 L1762,524 C1751.35298,559.113879 1771.21216,595.799484 1805,606 L1815,609 C1849.65592,619.595552 1886.3954,599.765496 1897,566 L1904,543 L2049,543 L2056,566 C2066.61747,600.261247 2103.85343,619.595552 2138,609 L2148,606 C2182.79367,595.303733 2202.65285,558.618128 2192,524 L2192,524 Z M1941,421 L1977,303 L2013,421 L1941,421 L1941,421 Z" fill="#020202"/><path d="M485,467 C512.758182,426.456483 529.138182,377.804618 529,326 C529.138182,185.182948 411.003636,71 266,71 C120.134545,71 2,185.679396 2,326 C2,465.675844 120.134545,580.35524 266,580 C304.781818,580.35524 342.009091,571.915631 375,557 L429,611 C454.683636,636.453819 496.378182,636.453819 522,611 L529,604 C554.452727,577.873002 554.452727,536.171403 529,511 L485,467 L485,467 Z M291,431 C282.833333,433.009174 274.412037,434 265,434 C255.587963,434 247.166667,433.009174 239,431 C192.675926,418.642202 158,374.055046 158,321 C158,297.266055 164.935185,275.46789 177,257 C197.62963,233.357798 229.333333,218 265,218 C300.666667,218 331.875,233.357798 353,257 C365.064815,275.46789 372,297.266055 372,321 C372,373.559633 337.324074,418.642202 291,431 L291,431 Z" fill="#E2312E"/><g opacity=".6" style="mix-blend-mode:lighten" transform="translate(-253.953 -13.882)"><mask id="b" fill="#fff"><use xlink:href="#a"/></mask><path d="M1539.95276,175.88189 L1529.95276,175.88189 C1493.74297,175.88189 1463.95276,205.616989 1463.95276,241.88189 L1463.95276,558.88189 C1463.95276,595.14679 1493.74297,624.88189 1529.95276,624.88189 L1539.95276,624.88189 C1576.16255,624.88189 1605.95276,595.14679 1605.95276,558.88189 L1605.95276,241.88189 C1605.45625,205.616989 1575.66604,175.88189 1539.95276,175.88189 L1539.95276,175.88189 Z" fill="#767575" mask="url(#b)"/><path d="M1389.95276,179.88189 L1210.95276,179.88189 C1178.72738,179.88189 1151.95276,206.14581 1151.95276,238.88189 L1151.95276,243.88189 L1151.95276,247.88189 L1151.95276,251.88189 L1151.95276,558.88189 C1151.95276,595.14915 1181.70234,624.88189 1217.95276,624.88189 L1227.95276,624.88189 C1264.00952,624.88189 1293.7591,595.14915 1293.95276,558.88189 L1293.95276,465.88189 L1377.95276,465.88189 C1406.80751,465.811734 1431.10301,441.529997 1430.95276,411.88189 L1430.95276,402.88189 C1431.10301,373.144696 1406.80751,348.862959 1377.95276,348.88189 L1293.95276,348.88189 L1293.95276,301.88189 L1389.95276,301.88189 C1422.17813,302.281667 1448.95276,276.017747 1448.95276,242.88189 L1448.95276,237.88189 C1448.45693,206.14581 1421.68231,179.88189 1389.95276,179.88189 L1389.95276,179.88189 Z" fill="#767575" mask="url(#b)"/><path d="M1060.95276,179.88189 L881.952756,179.88189 C849.772154,179.88189 822.952756,206.14581 822.952756,238.88189 L822.952756,243.88189 L822.952756,247.88189 L822.952756,251.88189 L822.952756,558.88189 L822.952756,559.88189 L822.952756,560.88189 L822.952756,565.88189 C822.952756,598.122424 849.275498,624.88189 881.952756,624.88189 L888.952756,624.88189 L898.952756,624.88189 L1060.95276,624.88189 C1093.13336,624.88189 1119.95276,598.61797 1119.95276,565.88189 L1119.95276,560.88189 C1119.95276,528.746032 1093.63001,501.986567 1060.95276,501.88189 L964.952756,501.88189 L964.952756,465.88189 L1047.95276,465.88189 C1077.73704,465.811734 1102.07316,441.529997 1101.95276,411.88189 L1101.95276,402.88189 C1102.07316,373.144696 1077.73704,348.862959 1047.95276,348.88189 L964.952756,348.88189 L964.952756,301.88189 L1060.95276,301.88189 C1093.13336,302.281667 1119.95276,276.017747 1119.95276,242.88189 L1119.95276,237.88189 C1119.95276,206.14581 1093.63001,179.88189 1060.95276,179.88189 L1060.95276,179.88189 Z" fill="#767575" mask="url(#b)"/><path d="M1871.95276,181.88189 L1722.95276,181.88189 L1720.95276,181.88189 L1713.95276,181.88189 C1677.70345,181.88189 1647.95276,211.635266 1647.95276,247.88189 L1647.95276,559.88189 C1647.95276,595.949707 1677.70345,625.703083 1713.95276,625.88189 L1723.95276,625.88189 C1760.0137,625.703083 1789.76439,595.949707 1789.95276,559.88189 L1789.95276,476.88189 L1878.95276,598.88189 C1900.3378,628.182531 1941.49292,634.629096 1970.95276,612.88189 L1978.95276,606.88189 C2007.93614,586.031915 2014.38212,544.873078 1992.95276,515.88189 L1940.95276,443.88189 C1979.17713,424.867795 2005.95276,385.692516 2005.95276,339.88189 L2005.95276,315.88189 C2005.95276,293.45705 1999.50677,272.133797 1987.95276,253.88189 C1965.78932,211.635266 1922.15497,181.88189 1871.95276,181.88189 L1871.95276,181.88189 Z M1867.95276,330.88189 C1867.95276,344.38189 1856.526,355.88189 1842.95276,355.88189 L1789.95276,355.88189 L1789.95276,302.88189 L1842.95276,302.88189 C1856.526,302.88189 1867.95276,314.38189 1867.95276,327.88189 L1867.95276,330.88189 L1867.95276,330.88189 Z" fill="#767575" mask="url(#b)"/><path d="M2445.95276,537.88189 L2333.95276,248.88189 C2330.49981,237.867811 2323.5491,225.969777 2313.95276,215.88189 C2298.22864,194.737438 2265.461,177.88189 2230.95276,177.88189 C2191.98203,177.88189 2156.2355,197.216195 2142.95276,220.88189 C2136.37632,229.935789 2130.91505,239.850817 2127.95276,249.88189 L2015.95276,537.88189 C2005.30573,572.995769 2025.16491,609.681374 2058.95276,619.88189 L2068.95276,622.88189 C2103.60868,633.477442 2140.34816,613.647385 2150.95276,579.88189 L2157.95276,556.88189 L2302.95276,556.88189 L2309.95276,579.88189 C2320.57022,614.143137 2357.80619,633.477442 2391.95276,622.88189 L2401.95276,619.88189 C2436.74643,609.185623 2456.60561,572.500018 2445.95276,537.88189 L2445.95276,537.88189 Z M2194.95276,434.88189 L2230.95276,316.88189 L2266.95276,434.88189 L2194.95276,434.88189 L2194.95276,434.88189 Z" fill="#767575" mask="url(#b)"/><path d="M738.952756,480.88189 C766.710938,440.338373 783.090938,391.686508 782.952756,339.88189 C783.090938,199.064838 664.956392,84.8818898 519.952756,84.8818898 C374.087301,84.8818898 255.952756,199.561286 255.952756,339.88189 C255.952756,479.557733 374.087301,594.23713 519.952756,593.88189 C558.734574,594.23713 595.961847,585.79752 628.952756,570.88189 L682.952756,624.88189 C708.636392,650.335709 750.330938,650.335709 775.952756,624.88189 L782.952756,617.88189 C808.405483,591.754892 808.405483,550.053293 782.952756,524.88189 L738.952756,480.88189 L738.952756,480.88189 Z M544.952756,444.88189 C536.786089,446.891064 528.364793,447.88189 518.952756,447.88189 C509.540719,447.88189 501.119423,446.891064 492.952756,444.88189 C446.628682,432.524092 411.952756,387.936936 411.952756,334.88189 C411.952756,311.147945 418.887941,289.34978 430.952756,270.88189 C451.582386,247.239688 483.286089,231.88189 518.952756,231.88189 C554.619423,231.88189 585.827756,247.239688 606.952756,270.88189 C619.017571,289.34978 625.952756,311.147945 625.952756,334.88189 C625.952756,387.441523 591.27683,432.524092 544.952756,444.88189 L544.952756,444.88189 Z" fill="#767575" mask="url(#b)"/></g></g></svg>